<?xml version="1.0" encoding="UTF-8" standalone="no"?>
<!-- Created with Inkscape (http://www.inkscape.org/) -->

<svg
   width="127.99997"
   height="127.99997"
   viewBox="0 0 33.866659 33.866659"
   version="1.1"
   id="svg1"
   inkscape:version="1.4.2 (ebf0e940d0, 2025-05-08)"
   sodipodi:docname="emblem_clean.svg"
   xml:space="preserve"
   xmlns:inkscape="http://www.inkscape.org/namespaces/inkscape"
   xmlns:sodipodi="http://sodipodi.sourceforge.net/DTD/sodipodi-0.dtd"
   xmlns="http://www.w3.org/2000/svg"
   xmlns:svg="http://www.w3.org/2000/svg"><sodipodi:namedview
     id="namedview1"
     pagecolor="#42001b"
     bordercolor="#eeeeee"
     borderopacity="1"
     inkscape:showpageshadow="0"
     inkscape:pageopacity="0"
     inkscape:pagecheckerboard="0"
     inkscape:deskcolor="#d1d1d1"
     inkscape:document-units="mm"
     inkscape:zoom="0.963"
     inkscape:cx="394.081"
     inkscape:cy="9.8650052"
     inkscape:current-layer="layer1"
     showguides="true" /><defs
     id="defs1" /><g
     inkscape:label="Layer 1"
     inkscape:groupmode="layer"
     id="layer1"
     transform="translate(-8.46667,-8.466671)"><path
       id="path57"
       style="fill:#d84382;fill-opacity:1;stroke:none;stroke-width:1.5875;stroke-linecap:round;stroke-miterlimit:24.2;stroke-dasharray:none;stroke-opacity:1;paint-order:stroke markers fill"
       d="M 25.4,8.466671 8.46667,25.4 l 4.56302,4.56303 c 0.34415,-0.53798 0.7155,-1.09251 1.1126,-1.6645 0.0542,-0.0781 0.10896,-0.15596 0.16381,-0.23409 L 11.64167,25.4 25.4,11.641671 v 4.28862 c 1.42669,-1.21035 2.853438,-2.30004 4.237978,-3.22564 z m 5.407938,5.40794 A 5.2559239,19.156594 43.846049 0 0 25.4,18.104841 V 25.4 v 7.29568 2.17351 4.28914 L 23.01772,36.77605 21.85086,35.6092 18.52083,32.27917 15.44712,29.20545 a 5.2559239,19.156594 43.846049 0 0 -1.25729,1.91771 l 2.7435,2.74351 3.05873,3.05872 1.16944,1.16944 L 25.4,42.33333 42.333328,25.4 l -4.56303,-4.56303 -1.16013,-1.16013 -2.7435,-2.743509 z" /><path
       id="path65"
       style="baseline-shift:baseline;display:inline;overflow:visible;vector-effect:none;fill:#932f59;fill-opacity:1;stroke-linecap:round;stroke-miterlimit:24.2;paint-order:stroke markers fill;enable-background:accumulate;stop-color:#000000"
       d="m 37.124348,10.308931 c -0.14481,0.004 -0.29315,0.0158 -0.44494,0.0346 -0.60714,0.0752 -1.27042,0.26344 -2.00194,0.54312 -3.96111,1.51445 -9.209748,5.62103 -13.852898,10.514599 l 0.14056,0.24857 2.24379,-0.35605 c 4.2654,-4.239849 8.852758,-7.707889 12.034918,-8.924519 1.28539,-0.49144 2.17413,-0.5281 2.58227,-0.38861 0.40815,0.13949 0.55235,0.32353 0.57981,1.02113 0.0406,1.03182 -0.5857,2.94414 -1.96473,5.38313 l 1.1777,1.177709 c 1.62105,-2.704679 2.44046,-4.909419 2.37298,-6.623369 -0.0435,-1.10592 -0.64631,-2.1171 -1.65209,-2.46083 -0.37717,-0.1289 -0.781,-0.18246 -1.21543,-0.1695 z M 16.37213,26.59579 c -0.55104,0.71692 -1.07869,1.43718 -1.57768,2.15594 -2.68392,3.866 -4.0734,6.89562 -3.98632,9.10746 0.0435,1.10592 0.64682,2.11916 1.65261,2.4629 1.00578,0.34373 2.19874,0.14957 3.66179,-0.4098 1.16312,-0.44469 2.43758,-1.11257 3.77496,-1.95853 l -1.17047,-1.17048 c -1.15111,0.72237 -2.22335,1.28415 -3.17086,1.64642 -1.28539,0.49144 -2.17568,0.52809 -2.58383,0.3886 -0.40814,-0.13948 -0.55079,-0.32405 -0.57826,-1.02164 -0.0549,-1.39519 1.10893,-4.39877 3.70521,-8.13852 0.2912,-0.41946 0.59372,-0.84026 0.9064,-1.26091 l -0.10955,-1.64434 z" /><path
       sodipodi:type="star"
       style="fill:#fa8072;fill-opacity:1;stroke:none;stroke-width:1.73956;stroke-linecap:round;stroke-miterlimit:24.2;stroke-dasharray:none;stroke-opacity:1;paint-order:stroke markers fill"
       id="path64"
       inkscape:flatsided="false"
       sodipodi:sides="7"
       sodipodi:cx="11.386982"
       sodipodi:cy="14.700622"
       sodipodi:r1="4.3488836"
       sodipodi:r2="2.6093302"
       sodipodi:arg1="1.5707963"
       sodipodi:arg2="2.0195953"
       inkscape:rounded="0"
       inkscape:randomized="0"
       d="m 11.386982,19.049505 -1.132146,-1.997958 -2.2679481,0.360559 0.8561852,-2.130854 -1.6959392,-1.548348 2.1997916,-0.659173 0.1531465,-2.291318 1.88691,1.308878 1.88691,-1.308878 0.153146,2.291318 2.199792,0.659173 -1.695939,1.548348 0.856185,2.130854 -2.267948,-0.360559 z"
       transform="matrix(0.91259053,0,0,-0.91259053,9.1213,38.08177)"
       inkscape:transform-center-y="-0.19651377" /></g></svg>
