<?xml version="1.0"?>
<svg xmlns="http://www.w3.org/2000/svg" xmlns:xlink="http://www.w3.org/1999/xlink" version="1.1" width="18" height="12" viewBox="0 0 18 12">
<!-- Generated by Kreative Vexillo v1.0 -->
<style>
.black{fill:rgb(0,0,0);}
.blue{fill:rgb(0,26,152);}
.brown{fill:rgb(96,56,19);}
.green{fill:rgb(6,191,0);}
.orange{fill:rgb(238,156,0);}
.pink{fill:rgb(255,175,199);}
.purple{fill:rgb(118,0,137);}
.red{fill:rgb(212,6,6);}
.turquoise{fill:rgb(116,215,236);}
.white{fill:rgb(251,249,245);}
.yellow{fill:rgb(227,255,0);}
</style>
<defs>
<linearGradient id="glaze" x1="0%" y1="0%" x2="100%" y2="100%">
<stop offset="0%" stop-color="rgb(255,255,255)" stop-opacity="0.2"/>
<stop offset="49.999%" stop-color="rgb(255,255,255)" stop-opacity="0.0"/>
<stop offset="50.001%" stop-color="rgb(0,0,0)" stop-opacity="0.0"/>
<stop offset="100%" stop-color="rgb(0,0,0)" stop-opacity="0.2"/>
</linearGradient>
</defs>
<g>
<g>
<rect x="0" y="0" width="18" height="2" class="red"/>
<rect x="0" y="2" width="18" height="2" class="orange"/>
<rect x="0" y="4" width="18" height="2" class="yellow"/>
<rect x="0" y="6" width="18" height="2" class="green"/>
<rect x="0" y="8" width="18" height="2" class="blue"/>
<rect x="0" y="10" width="18" height="2" class="purple"/>
</g>
<path d="M 0 0 L 3 0 L 9 6 L 3 12 L 0 12 Z" class="black"/>
<path d="M 0 0 L 1.5 0 L 7.5 6 L 1.5 12 L 0 12 Z" class="brown"/>
<path d="M 0 0 L 6 6 L 0 12 Z" class="turquoise"/>
<path d="M 0 1.5 L 4.5 6 L 0 10.5 Z" class="pink"/>
<path d="M 0 3 L 3 6 L 0 9 Z" class="white"/>
</g>
<g>
<rect x="0" y="0" width="18" height="12" fill="url(#glaze)"/>
<path d="M 1 1 L 17 1 L 17 11 L 1 11 Z M 2 2 L 2 10 L 16 10 L 16 2 Z" fill="rgb(255,255,255)" opacity="0.4"/>
<path d="M 0 0 L 18 0 L 18 12 L 0 12 Z M 1 1 L 1 11 L 17 11 L 17 1 Z" fill="rgb(0,0,0)" opacity="0.4"/>
</g>
</svg>
