<?xml version="1.0"?>
<svg xmlns="http://www.w3.org/2000/svg" xmlns:xlink="http://www.w3.org/1999/xlink" version="1.1" width="18" height="12" viewBox="0 0 18 12">
<!-- Generated by Kreative Vexillo v1.0 -->
<style>
.blue{fill:rgb(115,222,255);}
.pink1{fill:rgb(255,225,237);}
.pink2{fill:rgb(255,181,214);}
.pink3{fill:rgb(254,140,191);}
</style>
<defs>
<linearGradient id="glaze" x1="0%" y1="0%" x2="100%" y2="100%">
<stop offset="0%" stop-color="rgb(255,255,255)" stop-opacity="0.2"/>
<stop offset="49.999%" stop-color="rgb(255,255,255)" stop-opacity="0.0"/>
<stop offset="50.001%" stop-color="rgb(0,0,0)" stop-opacity="0.0"/>
<stop offset="100%" stop-color="rgb(0,0,0)" stop-opacity="0.2"/>
</linearGradient>
</defs>
<g>
<g>
<rect x="0" y="0" width="18" height="1.7143" class="blue"/>
<rect x="0" y="1.7143" width="18" height="1.7143" class="pink1"/>
<rect x="0" y="3.4286" width="18" height="1.7143" class="pink2"/>
<rect x="0" y="5.1429" width="18" height="1.7143" class="pink3"/>
<rect x="0" y="6.8571" width="18" height="1.7143" class="pink2"/>
<rect x="0" y="8.5714" width="18" height="1.7143" class="pink1"/>
<rect x="0" y="10.2857" width="18" height="1.7143" class="blue"/>
</g>
</g>
<g>
<rect x="0" y="0" width="18" height="12" fill="url(#glaze)"/>
<path d="M 1 1 L 17 1 L 17 11 L 1 11 Z M 2 2 L 2 10 L 16 10 L 16 2 Z" fill="rgb(255,255,255)" opacity="0.4"/>
<path d="M 0 0 L 18 0 L 18 12 L 0 12 Z M 1 1 L 1 11 L 17 11 L 17 1 Z" fill="rgb(0,0,0)" opacity="0.4"/>
</g>
</svg>
