<?xml version="1.0"?>
<svg xmlns="http://www.w3.org/2000/svg" xmlns:xlink="http://www.w3.org/1999/xlink" version="1.1" width="18" height="12" viewBox="0 0 18 12">
<!-- Generated by Kreative Vexillo v1.0 -->
<style>
.black{fill:rgb(0,0,0);}
.blue{fill:rgb(17,136,255);}
.dkgray{fill:rgb(31,31,31);}
.gray{fill:rgb(127,127,127);}
.green{fill:rgb(17,238,17);}
.red{fill:rgb(255,17,17);}
.white{fill:rgb(255,255,255);}
</style>
<defs>
<path id="bs" d="M 0.1875 -0.4385 V 0.4385 C 0.1875 0.45229998 0.1979 0.4594 0.2104 0.4536 C 0.3863 0.3721 0.5 0.1954 0.5 0.0 C 0.5 -0.1954 0.3863 -0.372 0.21039999 -0.4536 C 0.19789998 -0.4594 0.18749999 -0.4524 0.18749999 -0.4385 Z"/>
<path id="gear" d="M 0.5 -0.0933 L 0.3843 -0.1108 A 0.4 0.4 0.0 0 0 0.35009998 -0.19330001 L 0.4195 -0.28750002 L 0.2875 -0.41950002 L 0.1933 -0.35010004 A 0.4 0.4 0.0 0 0 0.11079999 -0.38430005 L 0.09329999 -0.50000006 H -0.0933 L -0.1108 -0.38430005 A 0.4 0.4 0.0 0 0 -0.19330001 -0.35010004 L -0.28750002 -0.41950005 L -0.41950002 -0.28750005 L -0.35010004 -0.19330005 A 0.4 0.4 0.0 0 0 -0.38430005 -0.11080005 L -0.50000006 -0.09330005 V 0.09339995 L -0.38430005 0.11089995 A 0.4 0.4 0.0 0 0 -0.35010004 0.19339995 L -0.41950005 0.28759995 L -0.28750005 0.41959995 L -0.19330005 0.35019994 A 0.4 0.4 0.0 0 0 -0.11080005 0.38439995 L -0.09330005 0.50009996 H 0.09339995 L 0.11089995 0.38439995 A 0.4 0.4 0.0 0 0 0.19339995 0.35019994 L 0.28759995 0.41959995 L 0.41959995 0.28759995 L 0.35019994 0.19339995 A 0.4 0.4 0.0 0 0 0.38439995 0.11089995 L 0.50009996 0.09339995 Z"/>
<path id="gs" d="M 0.0 -0.5 C -0.0447 -0.5 -0.0892 -0.494 -0.1323 -0.4822 C -0.1456 -0.4785 -0.1562 -0.46379998 -0.1562 -0.45 L -0.1562 0.44990003 C -0.1562 0.46370003 -0.1456 0.47850004 -0.1323 0.48210004 C -0.089200005 0.49390003 -0.044700004 0.49990004 0.0 0.49990004 C 0.0447 0.49990004 0.0892 0.49390003 0.1323 0.48210004 C 0.1456 0.47840005 0.1562 0.46370003 0.1562 0.44990003 L 0.1562 -0.45 C 0.1562 -0.46379998 0.1456 -0.4786 0.1323 -0.4822 C 0.089200005 -0.494 0.044700004 -0.5 0.0 -0.5 Z"/>
<path id="rs" d="M -0.2104 -0.4536 C -0.3863 -0.3721 -0.5 -0.1954 -0.5 0.0 C -0.5 0.1954 -0.3863 0.372 -0.21039999 0.4536 C -0.19789998 0.4594 -0.18749999 0.4524 -0.18749999 0.4385 V -0.4385 C -0.18749999 -0.45229998 -0.19789998 -0.4594 -0.21039999 -0.4536 Z"/>
<linearGradient id="glaze" x1="0%" y1="0%" x2="100%" y2="100%">
<stop offset="0%" stop-color="rgb(255,255,255)" stop-opacity="0.2"/>
<stop offset="49.999%" stop-color="rgb(255,255,255)" stop-opacity="0.0"/>
<stop offset="50.001%" stop-color="rgb(0,0,0)" stop-opacity="0.0"/>
<stop offset="100%" stop-color="rgb(0,0,0)" stop-opacity="0.2"/>
</linearGradient>
</defs>
<g>
<g>
<rect x="0" y="0" width="18" height="6" class="white"/>
<rect x="0" y="6" width="18" height="6" class="black"/>
</g>
<use xlink:href="#gear" transform="translate(9 6) scale(9 9) rotate(0)" class="gray"/>
<ellipse cx="9" cy="6" rx="3" ry="3" class="dkgray"/>
<use xlink:href="#rs" transform="translate(9 6) scale(4.8 4.8) rotate(0)" class="red"/>
<use xlink:href="#gs" transform="translate(9 6) scale(4.8 4.8) rotate(0)" class="green"/>
<use xlink:href="#bs" transform="translate(9 6) scale(4.8 4.8) rotate(0)" class="blue"/>
</g>
<g>
<rect x="0" y="0" width="18" height="12" fill="url(#glaze)"/>
<path d="M 1 1 L 17 1 L 17 11 L 1 11 Z M 2 2 L 2 10 L 16 10 L 16 2 Z" fill="rgb(255,255,255)" opacity="0.4"/>
<path d="M 0 0 L 18 0 L 18 12 L 0 12 Z M 1 1 L 1 11 L 17 11 L 17 1 Z" fill="rgb(0,0,0)" opacity="0.4"/>
</g>
</svg>
